<svg width="800" height="765" viewBox="0 0 800 765" fill="none" xmlns="http://www.w3.org/2000/svg">
<path fill-rule="evenodd" clip-rule="evenodd" d="M790.228 82.1253C687.001 235.602 376.067 546.032 376.067 546.032L375.945 545.91C375.215 546.71 374.554 547.544 373.771 548.327C364.475 557.543 353.204 564.524 340.811 568.741C328.419 572.959 315.229 574.302 302.241 572.669C306.506 590.031 306.304 608.19 301.656 625.453C297.007 642.716 288.062 658.521 275.656 671.393C275.656 671.393 144.904 833.094 0 731.205C0 731.205 78.1378 709.315 84.9362 646.269C83.1449 623.657 86.4306 600.93 94.553 579.752C102.675 558.573 115.429 539.478 131.882 523.863C143.899 511.42 158.943 502.314 175.54 497.437C192.137 492.56 209.716 492.08 226.555 496.044C225.11 483.226 226.564 470.248 230.811 458.068C235.057 445.888 241.987 434.819 251.088 425.678C251.853 424.896 252.705 424.235 253.505 423.487L253.383 423.365C253.383 423.365 564.109 112.883 717.811 9.7948C727.794 2.59534 740.013 -0.817777 752.282 0.165929C764.551 1.14963 776.07 6.46599 784.779 15.1641C793.487 23.8623 798.817 35.3748 799.816 47.6427C800.814 59.9105 797.416 72.1335 790.228 82.1253ZM251.453 547.527C245.269 541.171 237.884 536.107 229.727 532.629C221.569 529.152 212.801 527.331 203.934 527.271C195.02 527.279 186.2 529.087 178.002 532.586C169.804 536.084 162.397 541.202 156.223 547.631C143.27 560.431 133.232 575.876 126.795 592.911C120.359 609.947 117.675 628.171 118.928 646.338C114.799 678.536 98.9758 708.092 74.4691 729.379C81.8404 730.725 89.3185 731.4 96.8116 731.396C179.401 731.396 248.984 650.372 249.627 649.677C249.645 649.607 297.251 593.342 251.453 547.527ZM260.807 487.055C260.72 493.847 261.988 500.589 264.538 506.885C267.087 513.182 270.867 518.906 275.656 523.724C285.577 533.587 298.979 539.151 312.969 539.216C319.665 539.195 326.291 537.841 332.458 535.232C338.626 532.623 344.212 528.811 348.89 524.02L375.91 496.722L380.674 491.853L307.648 418.827C306.049 420.375 304.171 422.305 302.658 423.678L275.638 450.402C270.849 455.216 267.07 460.937 264.523 467.232C261.976 473.526 260.713 480.265 260.807 487.055ZM760.27 39.8224C758.69 38.2387 756.811 36.9838 754.743 36.1303C752.675 35.2768 750.458 34.8415 748.221 34.8497C744.218 34.8971 740.341 36.2527 737.18 38.7096C629.067 111.214 424.212 305.898 332.06 395.146L404.373 467.459C493.743 375.307 688.896 170.435 761.992 61.7824C764.371 58.5182 765.505 54.5111 765.189 50.4843C764.873 46.4575 763.129 42.6761 760.27 39.8224Z" fill="#3C2148"/>
</svg>
