<svg width="800" height="675" viewBox="0 0 800 675" fill="none" xmlns="http://www.w3.org/2000/svg">
<path d="M713.112 0H86.8885C38.9777 0 0 38.9777 0 86.8885V587.867C0 635.778 38.9777 674.755 86.8885 674.755H713.112C761.022 674.755 800 635.778 800 587.867V86.8885C800 38.9777 761.022 0 713.112 0ZM776.517 587.867C776.517 622.829 748.074 651.272 713.112 651.272H86.8885C51.9264 651.272 23.4834 622.829 23.4834 587.867V86.8885C23.4834 51.9264 51.9264 23.4834 86.8885 23.4834H713.112C748.074 23.4834 776.517 51.9264 776.517 86.8885V587.867Z" fill="#3C2148"/>
<path d="M738.161 125.245H61.8396C55.355 125.245 50.0979 130.5 50.0979 136.986C50.0979 143.472 55.355 148.728 61.8396 148.728H738.161C744.645 148.728 749.902 143.472 749.902 136.986C749.902 130.5 744.645 125.245 738.161 125.245Z" fill="#3C2148"/>
<path d="M86.8884 86.1057C89.9882 86.1057 93.0097 84.8532 95.1859 82.6615C97.3776 80.4853 98.6301 77.4638 98.6301 74.364C98.6301 71.2783 97.3776 68.2427 95.1859 66.0665C93.0097 63.8748 89.9882 62.6223 86.8884 62.6223C83.7886 62.6223 80.7671 63.8748 78.591 66.0665C76.3992 68.2427 75.1467 71.2783 75.1467 74.364C75.1467 77.4622 76.3992 80.4853 78.591 82.6615C80.7671 84.8532 83.7886 86.1057 86.8884 86.1057Z" fill="#3C2148"/>
<path d="M187.084 86.1057C190.168 86.1057 193.206 84.8532 195.382 82.6615C197.573 80.4853 198.826 77.4638 198.826 74.364C198.826 71.2783 197.573 68.2427 195.382 66.0665C193.206 63.8748 190.168 62.6223 187.084 62.6223C183.984 62.6223 180.963 63.8748 178.787 66.0665C176.595 68.2427 175.343 71.2783 175.343 74.364C175.343 77.4622 176.595 80.4853 178.787 82.6615C180.963 84.8532 183.984 86.1057 187.084 86.1057Z" fill="#3C2148"/>
<path d="M136.986 86.1057C140.086 86.1057 143.108 84.8532 145.284 82.6615C147.476 80.4853 148.728 77.4638 148.728 74.364C148.728 71.2783 147.476 68.2427 145.284 66.0665C143.108 63.8748 140.086 62.6223 136.986 62.6223C133.902 62.6223 130.865 63.8748 128.689 66.0665C126.497 68.2427 125.245 71.2783 125.245 74.364C125.245 77.4622 126.497 80.4853 128.689 82.6615C130.865 84.8532 133.902 86.1057 136.986 86.1057Z" fill="#3C2148"/>
<path d="M295.582 266.452C290.996 261.868 283.562 261.868 278.978 266.452L153.733 391.696C149.148 396.283 149.148 403.717 153.733 408.302L278.978 533.547C281.27 535.839 284.276 536.985 287.28 536.985C290.284 536.985 293.29 535.839 295.582 533.547C300.167 528.96 300.167 521.526 295.582 516.941L178.64 400L295.582 283.059C300.167 278.472 300.167 271.039 295.582 266.452Z" fill="#3C2148"/>
<path d="M521.022 266.452C516.437 261.868 509.002 261.868 504.418 266.452C499.833 271.039 499.833 278.472 504.418 283.057L621.361 399.998L504.418 516.939C499.833 521.526 499.833 528.96 504.418 533.545C506.71 535.837 509.716 536.983 512.72 536.983C515.724 536.983 518.73 535.837 521.022 533.545L646.267 408.301C650.852 403.713 650.852 396.28 646.267 391.695L521.022 266.452Z" fill="#3C2148"/>
<path d="M454.11 251.195C448.017 248.985 441.281 252.125 439.064 258.217L338.868 533.755C336.651 539.851 339.795 546.586 345.89 548.803C347.214 549.285 348.568 549.512 349.902 549.512C354.699 549.512 359.203 546.549 360.938 541.782L461.133 266.243C463.349 260.149 460.205 253.412 454.11 251.195Z" fill="#3C2148"/>
</svg>
