<svg width="700" height="699" viewBox="0 0 700 699" fill="none" xmlns="http://www.w3.org/2000/svg">
<g clip-path="url(#clip0_89_4)">
<path d="M350.376 278.614L614.595 15.1104C634.145 -4.39277 665.802 -4.35605 685.306 15.1924C704.81 34.7408 704.773 66.3994 685.224 85.9033L421.117 349.295L685.11 613.063C704.643 632.581 704.654 664.24 685.135 683.774C665.617 703.307 633.958 703.318 614.424 683.799L350.31 419.91L86.1056 683.399C66.5564 702.902 34.8986 702.865 15.3947 683.317C-4.10924 663.768 -4.07174 632.11 15.4767 612.606L279.569 349.229L15.7345 85.6189C-3.79909 66.1002 -3.81002 34.4416 15.7087 14.908C35.2275 -4.62558 66.8861 -4.63652 86.4197 14.8822L350.375 278.614H350.376Z" fill="white"/>
</g>
<defs>
<clipPath id="clip0_89_4">
<rect width="700" height="699" fill="white"/>
</clipPath>
</defs>
</svg>
