<svg width="112" height="139" viewBox="0 0 112 139" fill="none" xmlns="http://www.w3.org/2000/svg">
<g clip-path="url(#clip0_328_11)">
<path d="M3 109V30" stroke="#3C2148" stroke-width="5" stroke-linecap="round"/>
<path d="M109 70V109" stroke="#3C2148" stroke-width="5" stroke-linecap="round"/>
<path d="M56 56C85.2712 56 109 44.1356 109 29.5C109 14.8644 85.2712 3 56 3C26.7289 3 3 14.8644 3 29.5C3 44.1356 26.7289 56 56 56Z" stroke="#3C2148" stroke-width="5"/>
<path d="M109 70C109 84.3592 85.2712 96 56 96C26.7289 96 3 84.3592 3 70" stroke="#3C2148" stroke-width="5" stroke-linecap="round"/>
<path d="M109 109C109 123.911 85.2712 136 56 136C26.7289 136 3 123.911 3 109" stroke="#3C2148" stroke-width="5"/>
</g>
<defs>
<clipPath id="clip0_328_11">
<rect width="112" height="139" fill="white"/>
</clipPath>
</defs>
</svg>
