<svg width="734" height="668" viewBox="0 0 734 668" fill="none" xmlns="http://www.w3.org/2000/svg">
<path d="M369.26 5.53701C379.943 0.887679 391.77 -0.47866 403.247 1.63534C414.72 3.74801 425.26 9.23268 433.577 17.3117L715.633 291.213C721.373 296.79 725.907 303.46 728.997 310.803C732.083 318.147 733.667 326.03 733.667 333.98C733.667 341.933 732.083 349.813 728.997 357.157C725.907 364.503 721.363 371.18 715.623 376.757L433.573 650.657C425.253 658.733 414.72 664.213 403.247 666.327C391.77 668.44 379.943 667.073 369.26 662.427C358.58 657.78 349.57 650.087 343.277 640.387C336.99 630.693 333.67 619.39 333.667 607.88V501.36C257.182 504.687 209.145 519.723 172.852 541.657C130.524 567.237 100.761 603.91 59.6123 654.927C50.74 665.927 35.896 670.137 22.5703 665.433C9.24434 660.727 0.333344 648.133 0.333344 634C0.333344 515.38 17.0433 399.287 72.1503 312.033C124.526 229.106 208.954 176.265 333.667 168.365V60.0803C333.67 48.5703 336.99 37.2693 343.277 27.5757C349.57 17.8763 358.58 10.1833 369.26 5.53701Z" fill="#3C2148"/>
</svg>
