<svg width="638" height="639" viewBox="0 0 638 639" fill="none" xmlns="http://www.w3.org/2000/svg">
<path d="M485.667 285.667V619H385.667V395.5H252.333V619H85.6667V255.5L302 45L485.667 285.667Z" fill="#ffffff"/>
<path d="M242.333 619H113.333C106.575 619.554 99.8713 617.412 94.6874 613.04C89.5035 608.668 86.2604 602.422 85.6667 595.667V252.333M395.667 619H524.667C531.425 619.554 538.129 617.412 543.313 613.04C548.496 608.668 551.74 602.422 552.333 595.667V252.333M319 19L19 319M319 19L619 319M395.667 619V389H242.333V619" stroke="white" stroke-width="38" stroke-linecap="round" stroke-linejoin="round"/>
</svg>
