<svg width="423" height="418" viewBox="0 0 423 418" fill="none" xmlns="http://www.w3.org/2000/svg">
<rect x="1.3331" y="139.476" width="293" height="293" transform="rotate(-25.5006 1.3331 139.476)" stroke="white" stroke-width="2"/>
<rect x="6.41418" y="208.597" width="293" height="293" transform="rotate(-45 6.41418 208.597)" stroke="white" stroke-width="2"/>
<path d="M274.152 298.744C274.152 323.405 279.773 335.736 291.016 335.736C298.269 335.736 304.344 330.387 309.24 319.688C310.328 317.875 311.96 317.331 314.136 318.056C315.043 318.419 315.224 319.144 314.68 320.232C314.317 321.501 313.683 322.952 312.776 324.584C311.869 326.397 310.237 329.117 307.88 332.744C302.44 340.723 296.184 344.712 289.112 344.712C267.171 344.712 256.2 327.304 256.2 292.488C256.2 253.32 270.072 192.12 297.816 108.888C298.541 106.712 298.088 105.624 296.456 105.624C295.005 105.624 293.373 106.44 291.56 108.072C281.949 117.139 272.067 129.288 261.912 144.52C251.939 159.752 243.144 175.165 235.528 190.76C222.109 217.779 212.227 240.264 205.88 258.216C197.357 283.421 189.832 296.024 183.304 296.024C179.496 296.024 177.592 294.12 177.592 290.312C177.592 290.131 177.683 289.949 177.864 289.768C200.531 207.624 211.864 156.035 211.864 135C211.864 125.571 209.779 120.856 205.608 120.856C197.267 120.856 184.12 136.451 166.168 167.64C148.216 198.648 134.707 229.747 125.64 260.936C114.76 298.472 105.149 317.24 96.808 317.24C93 317.24 91.096 315.245 91.096 311.256C91.2773 310.712 91.8213 309.171 92.728 306.632C93.6347 304.093 94.8133 300.376 96.264 295.48C97.7147 290.403 99.9813 282.515 103.064 271.816C106.328 260.936 109.048 250.419 111.224 240.264C118.477 206.536 122.104 182.237 122.104 167.368C122.104 159.389 121.56 151.501 120.472 143.704C119.384 135.725 116.664 129.288 112.312 124.392C107.96 119.496 102.248 117.048 95.176 117.048C84.1147 117.048 76.3173 121.672 71.784 130.92C70.3333 134.184 69.608 136.995 69.608 139.352C69.608 141.528 70.2427 142.616 71.512 142.616C70.968 145.155 68.792 146.424 64.984 146.424C61.176 146.424 59.272 143.976 59.272 139.08C59.272 131.645 62.9893 125.027 70.424 119.224C78.04 113.421 86.6533 110.52 96.264 110.52C105.875 110.52 113.491 112.968 119.112 117.864C124.915 122.579 129.085 128.925 131.624 136.904C135.795 150.141 137.88 164.467 137.88 179.88C137.88 185.683 137.517 191.667 136.792 197.832H139.512C168.344 139.443 192.552 110.248 212.136 110.248C223.379 110.248 229 119.859 229 139.08C229 148.328 226.915 164.557 222.744 187.768H225.192C258.376 125.208 285.576 93.928 306.792 93.928C314.952 93.928 319.032 98.4613 319.032 107.528C313.411 121.491 307.155 140.531 300.264 164.648C282.856 224.307 274.152 269.005 274.152 298.744Z" fill="#DEDEDE"/>
</svg>
