<svg width="800" height="800" viewBox="0 0 800 800" fill="none" xmlns="http://www.w3.org/2000/svg">
<g clip-path="url(#clip0_3_7)">
<path d="M280.004 453.333C276.537 453.44 273.257 454.88 270.83 457.333L17.0704 710.72C-6.82298 734.533 -3.62297 767.627 14.2704 785.653C32.137 803.627 65.2837 806.853 89.2037 782.907L342.27 529.84C355.39 517.253 335.604 498.32 323.444 510.96L70.377 764.027C54.9104 779.493 41.8437 775.493 33.1504 766.8C24.457 758.053 20.617 744.773 35.8704 729.547L289.657 476.133C298.35 467.653 291.897 453.28 279.977 453.28L280.004 453.333ZM505.337 55.2C462.564 60.88 421.444 79.4667 388.27 110.213C375.204 122.293 393.87 141.413 406.404 129.787C464.537 75.92 550.19 64.5867 620.324 101.52C635.79 110.373 648.404 85.44 632.724 77.92C592.724 56.8533 548.19 49.5467 505.364 55.2H505.337ZM533.337 0C386.217 0 266.67 119.547 266.67 266.667C266.67 413.787 386.217 533.333 533.337 533.333C680.457 533.333 800.004 413.787 800.004 266.667C800.004 119.547 680.457 0 533.337 0ZM533.337 26.6667C666.03 26.6667 773.337 133.973 773.337 266.667C773.337 399.36 666.03 506.667 533.337 506.667C400.644 506.667 293.337 399.36 293.337 266.667C293.337 133.973 400.644 26.6667 533.337 26.6667Z" fill="#3C2148"/>
</g>
<defs>
<clipPath id="clip0_3_7">
<rect width="800" height="800" fill="white"/>
</clipPath>
</defs>
</svg>
