<svg width="800" height="800" viewBox="0 0 800 800" fill="none" xmlns="http://www.w3.org/2000/svg">
<g clip-path="url(#clip0_127_2)">
<path d="M800 400.009C800 620.941 620.928 800.006 400.006 800C179.072 800.006 5.0098e-07 620.941 5.0098e-07 400.009C-0.010937 179.078 179.072 0 400.006 0C620.928 0 800 179.084 800 400.009Z" fill="#3C2148"/>
<path d="M798.905 428.158C798.6 427.853 798.299 427.542 797.988 427.242C797.136 426.392 589.742 218.972 588.88 218.136C540.752 170.219 473.892 140.4 400 140.4C253.814 140.4 134.878 256.856 134.878 400C134.878 472.069 165.07 537.325 213.664 584.408C214.52 585.262 427.014 797.786 427.878 798.622C427.974 798.716 428.069 798.812 428.161 798.906C626.62 785.095 785.095 626.623 798.905 428.158Z" fill="#462953"/>
<path d="M400 140.401C253.814 140.401 134.878 256.856 134.878 400C134.878 543.144 253.814 659.598 400 659.598C546.186 659.598 665.122 543.144 665.122 400C665.122 256.856 546.186 140.401 400 140.401ZM400 637.504C265.994 637.504 156.972 530.962 156.972 400C156.972 269.037 265.994 162.495 400 162.495C534.006 162.495 643.028 269.034 643.028 400C643.028 530.965 534.006 637.504 400 637.504Z" fill="#F4F6F9"/>
<path d="M408.577 288.086C404.37 282.93 395.631 282.93 391.423 288.086L247.816 464.834C243.975 469.57 244.687 476.528 249.422 480.38C254.169 484.231 261.116 483.508 264.967 478.773L400 312.575L535.031 478.773C537.222 481.459 540.403 482.852 543.617 482.852C546.066 482.852 548.525 482.044 550.575 480.381C555.311 476.53 556.023 469.572 552.181 464.836L408.577 288.086Z" fill="#F4F6F9"/>
</g>
<defs>
<clipPath id="clip0_127_2">
<rect width="800" height="800" fill="white"/>
</clipPath>
</defs>
</svg>
