<svg width="900" height="26" viewBox="0 0 900 26" fill="none" xmlns="http://www.w3.org/2000/svg">
<path d="M0 11.0854L6 9.65614C12 8.16469 24 5.30607 36 4.37391C48 3.44175 60 4.43605 72 5.9275C84 7.35682 96 9.22113 108 10.464C120 11.7069 132 12.3283 144 11.5205C156 10.6504 168 8.41325 180 7.54323C192 6.73536 204 7.35682 216 6.23822C228 5.05749 240 2.19885 252 2.261C264 2.38528 276 5.49249 288 5.49249C300 5.49249 312 2.38528 324 2.261C336 2.19885 348 5.05748 360 5.80321C372 6.54894 384 5.05749 396 4.68463C408 4.24962 420 4.87106 432 6.23822C444 7.54325 456 9.65613 468 10.029C480 10.464 492 9.22112 504 8.47539C516 7.79181 528 7.54323 540 6.30035C552 5.05747 564 2.8203 576 1.45313C588 0.0859635 600 -0.2869 612 0.210252C624 0.707403 636 2.19887 648 4.06319C660 5.9275 672 8.16468 684 8.91041C696 9.65614 708 8.78612 720 8.28897C732 7.79182 744 7.54323 756 8.16467C768 8.78611 780 10.2776 792 9.84257C804 9.40756 816 7.17038 828 5.61678C840 4.06319 852 3.19317 864 4.06319C876 4.87106 888 7.35681 894 8.59969L900 9.84257V26H894C888 26 876 26 864 26C852 26 840 26 828 26C816 26 804 26 792 26C780 26 768 26 756 26C744 26 732 26 720 26C708 26 696 26 684 26C672 26 660 26 648 26C636 26 624 26 612 26C600 26 588 26 576 26C564 26 552 26 540 26C528 26 516 26 504 26C492 26 480 26 468 26C456 26 444 26 432 26C420 26 408 26 396 26C384 26 372 26 360 26C348 26 336 26 324 26C312 26 300 26 288 26C276 26 264 26 252 26C240 26 228 26 216 26C204 26 192 26 180 26C168 26 156 26 144 26C132 26 120 26 108 26C96 26 84 26 72 26C60 26 48 26 36 26C24 26 12 26 6 26H0V11.0854Z" fill="white"/>
</svg>
